<?xml version="1.0" encoding="UTF-8" standalone="no"?>
<!DOCTYPE svg PUBLIC "-//W3C//DTD SVG 1.1//EN"
 "http://www.w3.org/Graphics/SVG/1.1/DTD/svg11.dtd">
<!-- Generated by graphviz version 2.43.0 (0)
 -->
<!-- Title: %3 Pages: 1 -->
<svg width="393pt" height="85pt"
 viewBox="0.00 0.00 393.00 85.40" xmlns="http://www.w3.org/2000/svg" xmlns:xlink="http://www.w3.org/1999/xlink">
<g id="graph0" class="graph" transform="scale(1 1) rotate(0) translate(4 81.4)">
<title>%3</title>
<polygon fill="white" stroke="transparent" points="-4,4 -4,-81.4 389,-81.4 389,4 -4,4"/>
<!-- ini -->
<g id="node1" class="node">
<title>ini</title>
<ellipse fill="black" stroke="black" cx="1.8" cy="-22.2" rx="1.8" ry="1.8"/>
</g>
<!-- A -->
<g id="node2" class="node">
<title>A</title>
<ellipse fill="none" stroke="black" cx="67.6" cy="-22.2" rx="27" ry="18"/>
<text text-anchor="middle" x="67.6" y="-18.5" font-family="Times,serif" font-size="14.00">A</text>
</g>
<!-- ini&#45;&gt;A -->
<g id="edge1" class="edge">
<title>ini&#45;&gt;A</title>
<path fill="none" stroke="black" d="M3.91,-22.2C7.37,-22.2 18.49,-22.2 30.42,-22.2"/>
<polygon fill="black" stroke="black" points="30.48,-25.7 40.48,-22.2 30.48,-18.7 30.48,-25.7"/>
</g>
<!-- A&#45;&gt;A -->
<g id="edge3" class="edge">
<title>A&#45;&gt;A</title>
<path fill="none" stroke="black" d="M59.74,-39.61C58.28,-49.29 60.9,-58.2 67.6,-58.2 71.79,-58.2 74.38,-54.72 75.38,-49.74"/>
<polygon fill="black" stroke="black" points="78.88,-49.63 75.46,-39.61 71.88,-49.58 78.88,-49.63"/>
<text text-anchor="middle" x="67.6" y="-62" font-family="Times,serif" font-size="14.00">0</text>
</g>
<!-- B -->
<g id="node3" class="node">
<title>B</title>
<ellipse fill="none" stroke="black" cx="167.6" cy="-22.2" rx="27" ry="18"/>
<text text-anchor="middle" x="167.6" y="-18.5" font-family="Times,serif" font-size="14.00">B</text>
</g>
<!-- A&#45;&gt;B -->
<g id="edge2" class="edge">
<title>A&#45;&gt;B</title>
<path fill="none" stroke="black" d="M94.6,-22.2C105.57,-22.2 118.52,-22.2 130.39,-22.2"/>
<polygon fill="black" stroke="black" points="130.47,-25.7 140.47,-22.2 130.47,-18.7 130.47,-25.7"/>
<text text-anchor="middle" x="117.6" y="-26" font-family="Times,serif" font-size="14.00">1</text>
</g>
<!-- B&#45;&gt;B -->
<g id="edge5" class="edge">
<title>B&#45;&gt;B</title>
<path fill="none" stroke="black" d="M158.74,-39.24C156.93,-49.06 159.89,-58.2 167.6,-58.2 172.42,-58.2 175.38,-54.63 176.49,-49.55"/>
<polygon fill="black" stroke="black" points="179.98,-49.23 176.46,-39.24 172.98,-49.24 179.98,-49.23"/>
<text text-anchor="middle" x="167.6" y="-62" font-family="Times,serif" font-size="14.00">0</text>
</g>
<!-- C -->
<g id="node4" class="node">
<title>C</title>
<ellipse fill="none" stroke="black" cx="267.6" cy="-22.2" rx="27" ry="18"/>
<text text-anchor="middle" x="267.6" y="-18.5" font-family="Times,serif" font-size="14.00">C</text>
</g>
<!-- B&#45;&gt;C -->
<g id="edge4" class="edge">
<title>B&#45;&gt;C</title>
<path fill="none" stroke="black" d="M194.6,-22.2C205.57,-22.2 218.52,-22.2 230.39,-22.2"/>
<polygon fill="black" stroke="black" points="230.47,-25.7 240.47,-22.2 230.47,-18.7 230.47,-25.7"/>
<text text-anchor="middle" x="217.6" y="-26" font-family="Times,serif" font-size="14.00">1</text>
</g>
<!-- C&#45;&gt;C -->
<g id="edge7" class="edge">
<title>C&#45;&gt;C</title>
<path fill="none" stroke="black" d="M258.74,-39.24C256.93,-49.06 259.89,-58.2 267.6,-58.2 272.42,-58.2 275.38,-54.63 276.49,-49.55"/>
<polygon fill="black" stroke="black" points="279.98,-49.23 276.46,-39.24 272.98,-49.24 279.98,-49.23"/>
<text text-anchor="middle" x="267.6" y="-62" font-family="Times,serif" font-size="14.00">0</text>
</g>
<!-- D -->
<g id="node5" class="node">
<title>D</title>
<ellipse fill="none" stroke="black" cx="362.8" cy="-22.2" rx="18.36" ry="18.36"/>
<ellipse fill="none" stroke="black" cx="362.8" cy="-22.2" rx="22.4" ry="22.4"/>
<text text-anchor="middle" x="362.8" y="-18.5" font-family="Times,serif" font-size="14.00">D</text>
</g>
<!-- C&#45;&gt;D -->
<g id="edge6" class="edge">
<title>C&#45;&gt;D</title>
<path fill="none" stroke="black" d="M295.06,-22.2C306.1,-22.2 319.01,-22.2 330.52,-22.2"/>
<polygon fill="black" stroke="black" points="330.6,-25.7 340.6,-22.2 330.6,-18.7 330.6,-25.7"/>
<text text-anchor="middle" x="317.6" y="-26" font-family="Times,serif" font-size="14.00">1</text>
</g>
<!-- D&#45;&gt;C -->
<g id="edge8" class="edge">
<title>D&#45;&gt;C</title>
<path fill="none" stroke="black" d="M343.29,-11.11C336.96,-7.9 329.68,-4.82 322.6,-3.2 314.2,-1.27 305.29,-2.83 297.19,-5.73"/>
<polygon fill="black" stroke="black" points="295.57,-2.62 287.78,-9.8 298.35,-9.04 295.57,-2.62"/>
<text text-anchor="middle" x="317.6" y="-7" font-family="Times,serif" font-size="14.00">1</text>
</g>
<!-- D&#45;&gt;D -->
<g id="edge9" class="edge">
<title>D&#45;&gt;D</title>
<path fill="none" stroke="black" d="M354.75,-43.29C353.76,-53.44 356.44,-62.4 362.8,-62.4 366.87,-62.4 369.44,-58.72 370.49,-53.41"/>
<polygon fill="black" stroke="black" points="374,-53.41 370.85,-43.29 367,-53.17 374,-53.41"/>
<text text-anchor="middle" x="362.8" y="-66.2" font-family="Times,serif" font-size="14.00">0</text>
</g>
</g>
</svg>
