<svg xmlns="http://www.w3.org/2000/svg"
   xmlns:xlink="http://www.w3.org/1999/xlink"
   version="1.1"
   id="Page 1" width="100%" height="100%"  viewBox="-6 -6 1641 1106">
<desc>
XCircuit Version 3.9
File "Page 1.ps" Page 1
</desc>
<g stroke="black">
<g transform="matrix(   1    0   -0    1 672 448)" fill="#000000" >
<text stroke="none" font-family="Helvetica" font-size="40" ><tspan x="0" y="0">reset</tspan>
</text></g>
<g transform="matrix(   1    0   -0    1 816 448)" fill="#000000" >
<text stroke="none" font-family="Helvetica" font-size="40" ><tspan x="0" y="0">vcc</tspan>
</text></g>
<g transform="matrix(   1    0   -0    1 560 672)" fill="#000000" >
<text stroke="none" font-family="Helvetica" font-size="40" ><tspan x="0" y="0">xtal1</tspan>
</text></g>
<g transform="matrix(   1    0   -0    1 560 720)" fill="#000000" >
<text stroke="none" font-family="Helvetica" font-size="40" ><tspan x="0" y="0">xtal2</tspan>
</text></g>
<g transform="matrix(   1    0   -0    1 864 688)" fill="#000000" >
<text stroke="none" font-family="Helvetica" font-size="40" ><tspan x="0" y="0">PD7</tspan>
</text></g>
<g transform="matrix(   1    0   -0    1 864 768)" fill="#000000" >
<text stroke="none" font-family="Helvetica" font-size="40" ><tspan x="0" y="0">PB0</tspan>
</text></g>
<g transform="matrix(   1    0   -0    1 560 592)" fill="#000000" >
<text stroke="none" font-family="Helvetica" font-size="40" ><tspan x="0" y="0">PC2</tspan>
</text></g>
<g transform="matrix(   1    0   -0    1 720 784)" fill="#000000" >
<text stroke="none" font-family="Helvetica" font-size="40" ><tspan x="0" y="0">gnd</tspan>
</text></g>
<path d="M976,816 L976,416 544,416 544,816 z" fill="none" stroke-width="2" stroke-linejoin="bevel" stroke-linecap="round" stroke="#000000" />
<path d="M1200,672 L1172,672 " fill="none" stroke-width="2" stroke-linejoin="bevel" stroke-linecap="round" stroke="#000000" />
<path d="M1072,672 L1100,672 " fill="none" stroke-width="2" stroke-linejoin="bevel" stroke-linecap="round" stroke="#000000" />
<path d="M1100,672 L1106,686 1118,658 1130,686 1142,658 1154,686 1166,658 1172,672 " fill="none" stroke-width="2" stroke-linejoin="bevel" stroke-linecap="round" stroke="#000000" />
<path d="M1200,752 L1172,752 " fill="none" stroke-width="2" stroke-linejoin="bevel" stroke-linecap="round" stroke="#000000" />
<path d="M1072,752 L1100,752 " fill="none" stroke-width="2" stroke-linejoin="bevel" stroke-linecap="round" stroke="#000000" />
<path d="M1100,752 L1106,766 1118,738 1130,766 1142,738 1154,766 1166,738 1172,752 " fill="none" stroke-width="2" stroke-linejoin="bevel" stroke-linecap="round" stroke="#000000" />
<path d="M1344,654 L1376,672 1344,690 z" fill="#000000" stroke="none" />
<path d="M1312,672 L1344,672 " fill="none" stroke-width="2" stroke-linejoin="bevel" stroke-linecap="round" stroke="#000000" />
<path d="M1408,672 L1376,672 " fill="none" stroke-width="2" stroke-linejoin="bevel" stroke-linecap="round" stroke="#000000" />
<path d="M1376,654 L1376,690 " fill="none" stroke-width="2" stroke-linejoin="bevel" stroke-linecap="round" stroke="#000000" />
<path d="M1344,734 L1376,752 1344,770 z" fill="#000000" stroke="none" />
<path d="M1312,752 L1344,752 " fill="none" stroke-width="2" stroke-linejoin="bevel" stroke-linecap="round" stroke="#000000" />
<path d="M1408,752 L1376,752 " fill="none" stroke-width="2" stroke-linejoin="bevel" stroke-linecap="round" stroke="#000000" />
<path d="M1376,734 L1376,770 " fill="none" stroke-width="2" stroke-linejoin="bevel" stroke-linecap="round" stroke="#000000" />
<path d="M1520,816 L1520,848 " fill="none" stroke-width="2" stroke-linejoin="bevel" stroke-linecap="round" stroke="#000000" />
<path d="M1488,848 L1552,848 " fill="none" stroke-width="2" stroke-linejoin="bevel" stroke-linecap="round" stroke="#000000" />
<path d="M1502,862 L1538,862 " fill="none" stroke-width="2" stroke-linejoin="bevel" stroke-linecap="round" stroke="#000000" />
<path d="M1516,876 L1524,876 " fill="none" stroke-width="2" stroke-linejoin="bevel" stroke-linecap="round" stroke="#000000" />
<path d="M736,960 L736,992 " fill="none" stroke-width="2" stroke-linejoin="bevel" stroke-linecap="round" stroke="#000000" />
<path d="M704,992 L768,992 " fill="none" stroke-width="2" stroke-linejoin="bevel" stroke-linecap="round" stroke="#000000" />
<path d="M718,1006 L754,1006 " fill="none" stroke-width="2" stroke-linejoin="bevel" stroke-linecap="round" stroke="#000000" />
<path d="M732,1020 L740,1020 " fill="none" stroke-width="2" stroke-linejoin="bevel" stroke-linecap="round" stroke="#000000" />
<path d="M848,96 L848,64 " fill="none" stroke-width="2" stroke-linejoin="bevel" stroke-linecap="round" stroke="#000000" />
<path d="M816,64 L880,64 " fill="none" stroke-width="2" stroke-linejoin="bevel" stroke-linecap="round" stroke="#000000" />
<g transform="matrix( 0.9    0   -0  0.9 848  58)" fill="#000000" >
<text stroke="none" font-family="Times" font-size="40" ><tspan x="-35" y="0">Vdd</tspan>
</text></g>
<path d="M720,288 L720,260 " fill="none" stroke-width="2" stroke-linejoin="bevel" stroke-linecap="round" stroke="#000000" />
<path d="M720,160 L720,188 " fill="none" stroke-width="2" stroke-linejoin="bevel" stroke-linecap="round" stroke="#000000" />
<path d="M720,188 L706,194 734,206 706,218 734,230 706,242 734,254 720,260 " fill="none" stroke-width="2" stroke-linejoin="bevel" stroke-linecap="round" stroke="#000000" />
<path d="M480,896 L480,838 " fill="none" stroke-width="2" stroke-linejoin="bevel" stroke-linecap="round" stroke="#000000" />
<path d="M480,768 L480,826 " fill="none" stroke-width="2" stroke-linejoin="bevel" stroke-linecap="round" stroke="#000000" />
<path d="M448,826 L512,826 " fill="none" stroke-width="2" stroke-linejoin="bevel" stroke-linecap="round" stroke="#000000" />
<path d="M448,838 L512,838 " fill="none" stroke-width="2" stroke-linejoin="bevel" stroke-linecap="round" stroke="#000000" />
<path d="M272,896 L272,838 " fill="none" stroke-width="2" stroke-linejoin="bevel" stroke-linecap="round" stroke="#000000" />
<path d="M272,768 L272,826 " fill="none" stroke-width="2" stroke-linejoin="bevel" stroke-linecap="round" stroke="#000000" />
<path d="M240,826 L304,826 " fill="none" stroke-width="2" stroke-linejoin="bevel" stroke-linecap="round" stroke="#000000" />
<path d="M240,838 L304,838 " fill="none" stroke-width="2" stroke-linejoin="bevel" stroke-linecap="round" stroke="#000000" />
<path d="M384,1040 L384,1072 " fill="none" stroke-width="2" stroke-linejoin="bevel" stroke-linecap="round" stroke="#000000" />
<path d="M352,1072 L416,1072 " fill="none" stroke-width="2" stroke-linejoin="bevel" stroke-linecap="round" stroke="#000000" />
<path d="M366,1086 L402,1086 " fill="none" stroke-width="2" stroke-linejoin="bevel" stroke-linecap="round" stroke="#000000" />
<path d="M380,1100 L388,1100 " fill="none" stroke-width="2" stroke-linejoin="bevel" stroke-linecap="round" stroke="#000000" />
<path d="M720,416 L720,288 " fill="none" stroke-width="2" stroke-linejoin="bevel" stroke-linecap="round" stroke="#000000" />
<path d="M848,416 L848,96 " fill="none" stroke-width="2" stroke-linejoin="bevel" stroke-linecap="round" stroke="#000000" />
<path d="M720,160 L720,112 848,112 " fill="none" stroke-width="2" stroke-linejoin="bevel" stroke-linecap="round" stroke="#000000" />
<ellipse cx="848" cy="112" rx="6" ry="6" fill="#000000" stroke="none" />
<path d="M1072,672 L976,672 " fill="none" stroke-width="2" stroke-linejoin="bevel" stroke-linecap="round" stroke="#000000" />
<path d="M1072,752 L976,752 " fill="none" stroke-width="2" stroke-linejoin="bevel" stroke-linecap="round" stroke="#000000" />
<path d="M1312,752 L1200,752 " fill="none" stroke-width="2" stroke-linejoin="bevel" stroke-linecap="round" stroke="#000000" />
<path d="M1312,672 L1200,672 " fill="none" stroke-width="2" stroke-linejoin="bevel" stroke-linecap="round" stroke="#000000" />
<path d="M1520,816 L1520,672 1408,672 " fill="none" stroke-width="2" stroke-linejoin="bevel" stroke-linecap="round" stroke="#000000" />
<path d="M1520,752 L1408,752 " fill="none" stroke-width="2" stroke-linejoin="bevel" stroke-linecap="round" stroke="#000000" />
<ellipse cx="1520" cy="752" rx="6" ry="6" fill="#000000" stroke="none" />
<path d="M736,960 L736,816 " fill="none" stroke-width="2" stroke-linejoin="bevel" stroke-linecap="round" stroke="#000000" />
<path d="M656,816 L656,896 736,896 " fill="none" stroke-width="2" stroke-linejoin="bevel" stroke-linecap="round" stroke="#000000" />
<ellipse cx="736" cy="896" rx="6" ry="6" fill="#000000" stroke="none" />
<path d="M544,704 L480,704 480,768 " fill="none" stroke-width="2" stroke-linejoin="bevel" stroke-linecap="round" stroke="#000000" />
<path d="M544,656 L272,656 272,768 " fill="none" stroke-width="2" stroke-linejoin="bevel" stroke-linecap="round" stroke="#000000" />
<path d="M384,1040 L384,992 272,992 272,896 " fill="none" stroke-width="2" stroke-linejoin="bevel" stroke-linecap="round" stroke="#000000" />
<path d="M384,992 L480,992 480,944 " fill="none" stroke-width="2" stroke-linejoin="bevel" stroke-linecap="round" stroke="#000000" />
<path d="M480,944 L480,896 " fill="none" stroke-width="2" stroke-linejoin="bevel" stroke-linecap="round" stroke="#000000" />
<ellipse cx="384" cy="992" rx="6" ry="6" fill="#000000" stroke="none" />
<g transform="matrix(   1    0   -0    1  32 544)" fill="#000000" >
<text stroke="none" font-family="Helvetica" font-size="40" ><tspan x="0" y="0">Sensor</tspan>
</text></g>
<g transform="matrix(   1    0   -0    1  32 608)" fill="#000000" >
<text stroke="none" font-family="Helvetica" font-size="40" ><tspan x="0" y="0">Optico</tspan>
</text></g>
<path d="M0,496 L0,640 192,640 192,496 z" fill="none" stroke-width="2" stroke-linejoin="bevel" stroke-linecap="round" stroke="#000000" />
<path d="M544,576 L192,576 " fill="none" stroke-width="2" stroke-linejoin="bevel" stroke-linecap="round" stroke="#000000" />
<path d="M356,728 L380,728 380,776 356,776 z" fill="none" stroke-width="2" stroke-linejoin="bevel" stroke-linecap="round" stroke="#000000" />
<path d="M416,752 L392,752 " fill="none" stroke-width="2" stroke-linejoin="bevel" stroke-linecap="round" stroke="#000000" />
<path d="M320,752 L344,752 " fill="none" stroke-width="2" stroke-linejoin="bevel" stroke-linecap="round" stroke="#000000" />
<path d="M392,732 L392,772 " fill="none" stroke-width="2" stroke-linejoin="bevel" stroke-linecap="round" stroke="#000000" />
<path d="M344,732 L344,772 " fill="none" stroke-width="2" stroke-linejoin="bevel" stroke-linecap="round" stroke="#000000" />
<path d="M320,752 L272,752 " fill="none" stroke-width="2" stroke-linejoin="bevel" stroke-linecap="round" stroke="#000000" />
<ellipse cx="272" cy="752" rx="6" ry="6" fill="#000000" stroke="none" />
<path d="M416,752 L480,752 " fill="none" stroke-width="2" stroke-linejoin="bevel" stroke-linecap="round" stroke="#000000" />
<ellipse cx="480" cy="752" rx="6" ry="6" fill="#000000" stroke="none" />
<g transform="matrix(   1    0   -0    1 304 720)" fill="#000000" >
<text stroke="none" font-family="Helvetica" font-size="40" ><tspan x="0" y="0">20MHz</tspan>
</text></g>
<g transform="matrix(   1    0   -0    1 144 848)" fill="#000000" >
<text stroke="none" font-family="Helvetica" font-size="40" ><tspan x="0" y="0">22pF</tspan>
</text></g>
<g transform="matrix(   1    0   -0    1 496 880)" fill="#000000" >
<text stroke="none" font-family="Helvetica" font-size="40" ><tspan x="0" y="0">22pF</tspan>
</text></g>
<g transform="matrix(   1    0   -0    1 480 560)" fill="#000000" >
<text stroke="none" font-family="Helvetica" font-size="40" ><tspan x="0" y="0">25</tspan>
</text></g>
<g transform="matrix(   1    0   -0    1 480 640)" fill="#000000" >
<text stroke="none" font-family="Helvetica" font-size="40" ><tspan x="0" y="0">10</tspan>
</text></g>
<g transform="matrix(   1    0   -0    1 496 688)" fill="#000000" >
<text stroke="none" font-family="Helvetica" font-size="40" ><tspan x="0" y="0">9</tspan>
</text></g>
<g transform="matrix(   1    0   -0    1 672 864)" fill="#000000" >
<text stroke="none" font-family="Helvetica" font-size="40" ><tspan x="0" y="0">22</tspan>
</text></g>
<g transform="matrix(   1    0   -0    1 752 864)" fill="#000000" >
<text stroke="none" font-family="Helvetica" font-size="40" ><tspan x="0" y="0">8</tspan>
</text></g>
<g transform="matrix(   1    0   -0    1 992 656)" fill="#000000" >
<text stroke="none" font-family="Helvetica" font-size="40" ><tspan x="0" y="0">13</tspan>
</text></g>
<g transform="matrix(   1    0   -0    1 992 736)" fill="#000000" >
<text stroke="none" font-family="Helvetica" font-size="40" ><tspan x="0" y="0">14</tspan>
</text></g>
<g transform="matrix(   1    0   -0    1 1120 640)" fill="#000000" >
<text stroke="none" font-family="Helvetica" font-size="40" ><tspan x="0" y="0">220</tspan>
</text></g>
<g transform="matrix(   1    0   -0    1 1120 720)" fill="#000000" >
<text stroke="none" font-family="Helvetica" font-size="40" ><tspan x="0" y="0">220</tspan>
</text></g>
<g transform="matrix(   1    0   -0    1 624 240)" fill="#000000" >
<text stroke="none" font-family="Helvetica" font-size="40" ><tspan x="0" y="0">10k</tspan>
</text></g>
<g transform="matrix(   1    0   -0    1 688 400)" fill="#000000" >
<text stroke="none" font-family="Helvetica" font-size="40" ><tspan x="0" y="0">1</tspan>
</text></g>
<g transform="matrix(   1    0   -0    1 816 400)" fill="#000000" >
<text stroke="none" font-family="Helvetica" font-size="40" ><tspan x="0" y="0">7</tspan>
</text></g>
<ellipse cx="1408" cy="64" rx="67" ry="64" fill="none" stroke-width="2" stroke-linejoin="bevel" stroke-linecap="round" stroke="#000000" />
<ellipse cx="1568" cy="288" rx="67" ry="67" fill="none" stroke-width="2" stroke-linejoin="bevel" stroke-linecap="round" stroke="#000000" />
<ellipse cx="1392" cy="432" rx="67" ry="67" fill="none" stroke-width="2" stroke-linejoin="bevel" stroke-linecap="round" stroke="#000000" />
<ellipse cx="1200" cy="256" rx="67" ry="67" fill="none" stroke-width="2" stroke-linejoin="bevel" stroke-linecap="round" stroke="#000000" />
<path d="M1456,112 C1520,112 1552,128 1536,224 " fill="none" stroke-width="2" stroke-linejoin="bevel" stroke-linecap="round" stroke="#000000" />
<path d="M1520,320 C1536,320 1504,416 1440,384 " fill="none" stroke-width="2" stroke-linejoin="bevel" stroke-linecap="round" stroke="#000000" />
<path d="M1344,400 C1360,400 1216,448 1248,304 " fill="none" stroke-width="2" stroke-linejoin="bevel" stroke-linecap="round" stroke="#000000" />
<path d="M1232,192 C1248,192 1200,80 1344,96 " fill="none" stroke-width="2" stroke-linejoin="bevel" stroke-linecap="round" stroke="#000000" />
<g transform="matrix(   1    0   -0    1 1392  80)" fill="#000000" >
<text stroke="none" font-family="Helvetica" font-size="40" ><tspan x="0" y="0">0</tspan>
</text></g>
<g transform="matrix(   1    0   -0    1 1552 304)" fill="#000000" >
<text stroke="none" font-family="Helvetica" font-size="40" ><tspan x="0" y="0">1</tspan>
</text></g>
<g transform="matrix(   1    0   -0    1 1376 448)" fill="#000000" >
<text stroke="none" font-family="Helvetica" font-size="40" ><tspan x="0" y="0">2</tspan>
</text></g>
<g transform="matrix(   1    0   -0    1 1184 272)" fill="#000000" >
<text stroke="none" font-family="Helvetica" font-size="40" ><tspan x="0" y="0">3</tspan>
</text></g>
<path d="M1536,224 L1552,192 1536,224 1520,192 1552,192 " fill="none" stroke-width="2" stroke-linejoin="bevel" stroke-linecap="round" stroke="#000000" />
<path d="M1440,384 L1472,368 1472,400 1440,384 " fill="none" stroke-width="2" stroke-linejoin="bevel" stroke-linecap="round" stroke="#000000" />
<path d="M1248,304 L1264,336 1232,336 1248,304 " fill="none" stroke-width="2" stroke-linejoin="bevel" stroke-linecap="round" stroke="#000000" />
<path d="M1344,96 L1312,112 1312,80 1344,96 " fill="none" stroke-width="2" stroke-linejoin="bevel" stroke-linecap="round" stroke="#000000" />
<g transform="matrix(   1    0   -0    1 672 512)" fill="#2e8b57" >
<text stroke="none" font-family="Helvetica" font-size="40" ><tspan x="0" y="0">ATMEGA48</tspan>
</text></g>
</g>
</svg>
